# xmcd
#
# Track frame offsets:
#	150
#	17748
#	41210
#
# Disc length: 924 seconds
#
# Revision: 0
# Processed by: cddbd v1.5.1PL2 Copyright (c) Steve Scherf et al.
# Submitted via: EasyCDDAExtractor 4.6.9.1
#
DISCID=1f039a03
DTITLE=A Guy Called Gerald - Automanikk
DYEAR=1990
DGENRE=Electronic
TTITLE0=Automanikk (Live Gun Shot Mix)
TTITLE1=To The Other Side
TTITLE2=Automanikk (Live Gun Shot Mix - Full Version)
EXTD=
EXTT0=
EXTT1=
EXTT2=
PLAYORDER=
